# xmcd
#
# Track frame offsets:
#	150
#	16740
#	35802
#	50587
#	69334
#	91884
#	104769
#	120606
#	150430
#	176064
#
# Disc length: 3457 seconds
# Revision: 0
# Processed by: cddbd v1.5.2PL0 Copyright (c) Steve Scherf et al.
# Submitted via: dBpowerAMP V12.0
#
DISCID=7e0d7f0a
DTITLE=Lazer Lloyd - My Own Blues [High Fidelity]
DYEAR=2012
DGENRE=Blues
TTITLE0=Keep Movin
TTITLE1=Good Man Down
TTITLE2=My Own Blues
TTITLE3=By Your Side
TTITLE4=Blues In Tel Aviv
TTITLE5=Preaching
TTITLE6=War
TTITLE7=Rolling
TTITLE8=Friday Night
TTITLE9=The Hop
EXTD=
EXTT0=
EXTT1=
EXTT2=
EXTT3=
EXTT4=
EXTT5=
EXTT6=
EXTT7=
EXTT8=
EXTT9=
PLAYORDER=
